<?xml version="1.0" encoding="utf-8"?><svg xmlns="http://www.w3.org/2000/svg" xmlns:xlink="http://www.w3.org/1999/xlink"><symbol viewBox="0 0 24 22" id="cart" xmlns="http://www.w3.org/2000/svg"><path d="M24 4.6l-2.7 11c-.1.3-.3.5-.7.5H7.9c-.3 0-.6-.2-.7-.5l-2.7-11-.8-3.1h-3c-.4 0-.7-.4-.7-.8S.3 0 .7 0h3.6c.3 0 .6.2.7.5l.8 3.1h17.6c.2 0 .4.1.5.3s.1.5.1.7zm-6.4 10H20l.5-2.2h-3v2.2zm0-3.6H21l.5-2.2h-3.9V11zm-6.7-5.9H6.1l.5 2.2h4.2c.1 0 .1-2.2.1-2.2zm0 3.7H7l.5 2.2h3.3c.1 0 .1-2.2.1-2.2zm0 3.6h-3l.5 2.2h2.4c.1 0 .1-2.2.1-2.2zm5.3-7.3h-4v2.2h4V5.1zm0 3.7h-4V11h4V8.8zm0 3.6h-4v2.2h4v-2.2zm1.4-7.3v2.2h4.2l.5-2.2h-4.7zM9.7 16.7c1.4 0 2.5 1.2 2.5 2.7S11.1 22 9.7 22s-2.5-1.2-2.5-2.7 1.1-2.6 2.5-2.6zm0 3.8c.6 0 1.1-.5 1.1-1.2s-.5-1.2-1.1-1.2-1.1.5-1.1 1.2.5 1.2 1.1 1.2zm9.1-3.8c1.4 0 2.5 1.2 2.5 2.7S20.2 22 18.8 22s-2.5-1.2-2.5-2.7 1.1-2.6 2.5-2.6zm0 3.8c.6 0 1.1-.5 1.1-1.2s-.5-1.2-1.1-1.2-1.1.5-1.1 1.2c-.1.7.4 1.2 1.1 1.2z" fill-rule="evenodd" clip-rule="evenodd"/></symbol><symbol viewBox="0 0 344.96 344.96" id="check" xmlns="http://www.w3.org/2000/svg"><g data-name="Слой 2"><path d="M321.85 86.24l-40-23.11-23.1-40H212.5L172.48 0l-40 23.11H86.24l-23.11 40-40 23.1v46.21L0 172.48l23.11 40v46.21l40 23.11 23.11 40h46.21l40 23.1 40-23.11h46.21l23.11-40 40-23.11V212.5l23.11-40-23.11-40V86.24zM156.91 243.07a16.79 16.79 0 01-23.34 0l-50.45-50.44a16.19 16.19 0 010-22.89l13.35-13.35a16.19 16.19 0 0122.89 0l25.87 25.87 80.34-80.35a16.19 16.19 0 0122.89 0l13.35 13.35a16.19 16.19 0 010 22.89z" data-name="Capa 1"/></g></symbol><symbol class="csvg-inline--fa cfa-facebook-f cfa-w-10" viewBox="0 0 320 512" id="facebook" xmlns="http://www.w3.org/2000/svg"><path d="M279.14 288l14.22-92.66h-88.91v-60.13c0-25.35 12.42-50.06 52.24-50.06h40.42V6.26S260.43 0 225.36 0c-73.22 0-121.08 44.38-121.08 124.72v70.62H22.89V288h81.39v224h100.17V288z"/></symbol><symbol class="dsvg-inline--fa dfa-instagram dfa-w-14" viewBox="0 0 448 512" id="instagram" xmlns="http://www.w3.org/2000/svg"><path d="M224.1 141c-63.6 0-114.9 51.3-114.9 114.9s51.3 114.9 114.9 114.9S339 319.5 339 255.9 287.7 141 224.1 141zm0 189.6c-41.1 0-74.7-33.5-74.7-74.7s33.5-74.7 74.7-74.7 74.7 33.5 74.7 74.7-33.6 74.7-74.7 74.7zm146.4-194.3c0 14.9-12 26.8-26.8 26.8-14.9 0-26.8-12-26.8-26.8s12-26.8 26.8-26.8 26.8 12 26.8 26.8zm76.1 27.2c-1.7-35.9-9.9-67.7-36.2-93.9-26.2-26.2-58-34.4-93.9-36.2-37-2.1-147.9-2.1-184.9 0-35.8 1.7-67.6 9.9-93.9 36.1s-34.4 58-36.2 93.9c-2.1 37-2.1 147.9 0 184.9 1.7 35.9 9.9 67.7 36.2 93.9s58 34.4 93.9 36.2c37 2.1 147.9 2.1 184.9 0 35.9-1.7 67.7-9.9 93.9-36.2 26.2-26.2 34.4-58 36.2-93.9 2.1-37 2.1-147.8 0-184.8zM398.8 388c-7.8 19.6-22.9 34.7-42.6 42.6-29.5 11.7-99.5 9-132.1 9s-102.7 2.6-132.1-9c-19.6-7.8-34.7-22.9-42.6-42.6-11.7-29.5-9-99.5-9-132.1s-2.6-102.7 9-132.1c7.8-19.6 22.9-34.7 42.6-42.6 29.5-11.7 99.5-9 132.1-9s102.7-2.6 132.1 9c19.6 7.8 34.7 22.9 42.6 42.6 11.7 29.5 9 99.5 9 132.1s2.7 102.7-9 132.1z"/></symbol><symbol viewBox="0 0 53 53" id="search" xmlns="http://www.w3.org/2000/svg"><path d="M51.7 51.3L36.8 35.8C40.6 32 43 26.8 43 21 43 9.4 33.6 0 22 0S1 9.4 1 21s9.4 21 21 21c5.1 0 9.7-1.8 13.4-4.8l14.9 15.5c.2.2.5.3.7.3.3 0 .5-.1.7-.3.4-.4.4-1 0-1.4zM22 40C11.5 40 3 31.5 3 21S11.5 2 22 2s19 8.5 19 19-8.5 19-19 19z"/></symbol><symbol class="fsvg-inline--fa ffa-star ffa-w-18" viewBox="0 0 576 512" id="star" xmlns="http://www.w3.org/2000/svg"><path d="M259.3 17.8L194 150.2 47.9 171.5c-26.2 3.8-36.7 36.1-17.7 54.6l105.7 103-25 145.5c-4.5 26.3 23.2 46 46.4 33.7L288 439.6l130.7 68.7c23.2 12.2 50.9-7.4 46.4-33.7l-25-145.5 105.7-103c19-18.5 8.5-50.8-17.7-54.6L382 150.2 316.7 17.8c-11.7-23.6-45.6-23.9-57.4 0z"/></symbol><symbol class="gsvg-inline--fa gfa-twitter gfa-w-16" viewBox="0 0 512 512" id="twitter" xmlns="http://www.w3.org/2000/svg"><path d="M459.37 151.716c.325 4.548.325 9.097.325 13.645 0 138.72-105.583 298.558-298.558 298.558-59.452 0-114.68-17.219-161.137-47.106 8.447.974 16.568 1.299 25.34 1.299 49.055 0 94.213-16.568 130.274-44.832-46.132-.975-84.792-31.188-98.112-72.772 6.498.974 12.995 1.624 19.818 1.624 9.421 0 18.843-1.3 27.614-3.573-48.081-9.747-84.143-51.98-84.143-102.985v-1.299c13.969 7.797 30.214 12.67 47.431 13.319-28.264-18.843-46.781-51.005-46.781-87.391 0-19.492 5.197-37.36 14.294-52.954 51.655 63.675 129.3 105.258 216.365 109.807-1.624-7.797-2.599-15.918-2.599-24.04 0-57.828 46.782-104.934 104.934-104.934 30.213 0 57.502 12.67 76.67 33.137 23.715-4.548 46.456-13.32 66.599-25.34-7.798 24.366-24.366 44.833-46.132 57.827 21.117-2.273 41.584-8.122 60.426-16.243-14.292 20.791-32.161 39.308-52.628 54.253z"/></symbol></svg>