<?xml version="1.0" encoding="utf-8"?><svg xmlns="http://www.w3.org/2000/svg" xmlns:xlink="http://www.w3.org/1999/xlink"><symbol viewBox="0 0 24 22" id="cart" xmlns="http://www.w3.org/2000/svg"><path d="M24 4.6l-2.7 11c-.1.3-.3.5-.7.5H7.9c-.3 0-.6-.2-.7-.5l-2.7-11-.8-3.1h-3c-.4 0-.7-.4-.7-.8S.3 0 .7 0h3.6c.3 0 .6.2.7.5l.8 3.1h17.6c.2 0 .4.1.5.3s.1.5.1.7zm-6.4 10H20l.5-2.2h-3v2.2zm0-3.6H21l.5-2.2h-3.9V11zm-6.7-5.9H6.1l.5 2.2h4.2c.1 0 .1-2.2.1-2.2zm0 3.7H7l.5 2.2h3.3c.1 0 .1-2.2.1-2.2zm0 3.6h-3l.5 2.2h2.4c.1 0 .1-2.2.1-2.2zm5.3-7.3h-4v2.2h4V5.1zm0 3.7h-4V11h4V8.8zm0 3.6h-4v2.2h4v-2.2zm1.4-7.3v2.2h4.2l.5-2.2h-4.7zM9.7 16.7c1.4 0 2.5 1.2 2.5 2.7S11.1 22 9.7 22s-2.5-1.2-2.5-2.7 1.1-2.6 2.5-2.6zm0 3.8c.6 0 1.1-.5 1.1-1.2s-.5-1.2-1.1-1.2-1.1.5-1.1 1.2.5 1.2 1.1 1.2zm9.1-3.8c1.4 0 2.5 1.2 2.5 2.7S20.2 22 18.8 22s-2.5-1.2-2.5-2.7 1.1-2.6 2.5-2.6zm0 3.8c.6 0 1.1-.5 1.1-1.2s-.5-1.2-1.1-1.2-1.1.5-1.1 1.2c-.1.7.4 1.2 1.1 1.2z" fill-rule="evenodd" clip-rule="evenodd"/></symbol><symbol viewBox="0 0 344.96 344.96" id="check" xmlns="http://www.w3.org/2000/svg"><g data-name="Слой 2"><path d="M321.85 86.24l-40-23.11-23.1-40H212.5L172.48 0l-40 23.11H86.24l-23.11 40-40 23.1v46.21L0 172.48l23.11 40v46.21l40 23.11 23.11 40h46.21l40 23.1 40-23.11h46.21l23.11-40 40-23.11V212.5l23.11-40-23.11-40V86.24zM156.91 243.07a16.79 16.79 0 01-23.34 0l-50.45-50.44a16.19 16.19 0 010-22.89l13.35-13.35a16.19 16.19 0 0122.89 0l25.87 25.87 80.34-80.35a16.19 16.19 0 0122.89 0l13.35 13.35a16.19 16.19 0 010 22.89z" data-name="Capa 1"/></g></symbol><symbol viewBox="0 0 53 53" id="search" xmlns="http://www.w3.org/2000/svg"><path d="M51.7 51.3L36.8 35.8C40.6 32 43 26.8 43 21 43 9.4 33.6 0 22 0S1 9.4 1 21s9.4 21 21 21c5.1 0 9.7-1.8 13.4-4.8l14.9 15.5c.2.2.5.3.7.3.3 0 .5-.1.7-.3.4-.4.4-1 0-1.4zM22 40C11.5 40 3 31.5 3 21S11.5 2 22 2s19 8.5 19 19-8.5 19-19 19z"/></symbol></svg>