<?xml version="1.0" encoding="utf-8"?>
<!-- Generator: Adobe Illustrator 23.0.2, SVG Export Plug-In . SVG Version: 6.00 Build 0)  -->
<svg version="1.1" id="Слой_1" xmlns="http://www.w3.org/2000/svg" xmlns:xlink="http://www.w3.org/1999/xlink" x="0px" y="0px"
	 viewBox="0 0 24 22" style="enable-background:new 0 0 24 22;" xml:space="preserve">
<style type="text/css">
	.st0{fill-rule:evenodd;clip-rule:evenodd;fill:#111111;}
</style>
<path class="st0" d="M24,4.6l-2.7,11c-0.1,0.3-0.3,0.5-0.7,0.5H7.9c-0.3,0-0.6-0.2-0.7-0.5l-2.7-11L3.7,1.5H0.7C0.3,1.5,0,1.1,0,0.7
	C0,0.3,0.3,0,0.7,0h3.6c0.3,0,0.6,0.2,0.7,0.5l0.8,3.1h17.6c0.2,0,0.4,0.1,0.5,0.3S24,4.4,24,4.6z M17.6,14.6h2.4l0.5-2.2h-3V14.6z
	 M17.6,11H21l0.5-2.2h-3.9V11z M10.9,5.1H6.1l0.5,2.2h4.2C10.9,7.3,10.9,5.1,10.9,5.1z M10.9,8.8H7L7.5,11h3.3
	C10.9,11,10.9,8.8,10.9,8.8z M10.9,12.4h-3l0.5,2.2h2.4C10.9,14.6,10.9,12.4,10.9,12.4z M16.2,5.1h-4v2.2h4V5.1z M16.2,8.8h-4V11h4
	V8.8z M16.2,12.4h-4v2.2h4V12.4z M17.6,5.1v2.2h4.2l0.5-2.2H17.6z M9.7,16.7c1.4,0,2.5,1.2,2.5,2.7S11.1,22,9.7,22s-2.5-1.2-2.5-2.7
	S8.3,16.7,9.7,16.7z M9.7,20.5c0.6,0,1.1-0.5,1.1-1.2c0-0.7-0.5-1.2-1.1-1.2s-1.1,0.5-1.1,1.2C8.6,20,9.1,20.5,9.7,20.5z M18.8,16.7
	c1.4,0,2.5,1.2,2.5,2.7S20.2,22,18.8,22c-1.4,0-2.5-1.2-2.5-2.7S17.4,16.7,18.8,16.7z M18.8,20.5c0.6,0,1.1-0.5,1.1-1.2
	c0-0.7-0.5-1.2-1.1-1.2s-1.1,0.5-1.1,1.2C17.6,20,18.1,20.5,18.8,20.5z"/>
</svg>
